0
SECTION
2
HEADER
9
$INSUNITS
70
4
9
$ACADVER
1
AC1014
9
$HANDSEED
5
FFFF
0
ENDSEC
0
SECTION
2
TABLES
0
TABLE
2
VPORT
5
8
100
AcDbSymbolTable
0
ENDTAB
0
TABLE
2
LTYPE
5
5
100
AcDbSymbolTable
0
LTYPE
5
14
100
AcDbSymbolTableRecord
100
AcDbLinetypeTableRecord
2
BYBLOCK
70
0
0
LTYPE
5
15
100
AcDbSymbolTableRecord
100
AcDbLinetypeTableRecord
2
BYLAYER
70
0
0
ENDTAB
0
TABLE
2
LAYER
5
2
100
AcDbSymbolTable
70
2
0
LAYER
5
50
100
AcDbSymbolTableRecord
100
AcDbLayerTableRecord
2
0
70
0
6
CONTINUOUS
0
ENDTAB
0
TABLE
2
STYLE
5
3
100
AcDbSymbolTable
70
1
0
STYLE
5
11
100
AcDbSymbolTableRecord
100
AcDbTextStyleTableRecord
2
STANDARD
70
0
0
ENDTAB
0
TABLE
2
VIEW
5
6
100
AcDbSymbolTable
70
0
0
ENDTAB
0
TABLE
2
UCS
5
7
100
AcDbSymbolTable
70
0
0
ENDTAB
0
TABLE
2
APPID
5
9
100
AcDbSymbolTable
70
2
0
APPID
5
12
100
AcDbSymbolTableRecord
100
AcDbRegAppTableRecord
2
ACAD
70
0
0
ENDTAB
0
TABLE
2
DIMSTYLE
5
A
100
AcDbSymbolTable
70
1
0
ENDTAB
0
TABLE
2
BLOCK_RECORD
5
1
100
AcDbSymbolTable
70
1
0
BLOCK_RECORD
5
1F
100
AcDbSymbolTableRecord
100
AcDbBlockTableRecord
2
*MODEL_SPACE
0
BLOCK_RECORD
5
1B
100
AcDbSymbolTableRecord
100
AcDbBlockTableRecord
2
*PAPER_SPACE
0
ENDTAB
0
ENDSEC
0
SECTION
2
BLOCKS
0
BLOCK
5
20
100
AcDbEntity
100
AcDbBlockBegin
2
*MODEL_SPACE
0
ENDBLK
5
21
100
AcDbEntity
100
AcDbBlockEnd
0
BLOCK
5
1C
100
AcDbEntity
100
AcDbBlockBegin
2
*PAPER_SPACE
0
ENDBLK
5
1D
100
AcDbEntity
100
AcDbBlockEnd
0
ENDSEC
0
SECTION
2
ENTITIES
0
LWPOLYLINE
5
100
100
AcDbEntity
8
0
100
AcDbPolyline
90
20
70
1
43
0.0
10
-160.29637425282684
20
13.862500953674303
10
-162.29637425282681
20
13.862500953674303
10
-162.29637425282681
20
10.862500953674301
10
-166.29637425282681
20
10.862500953674301
10
-166.29637425282681
20
13.862500953674303
10
-186.29637425282681
20
13.862500953674299
10
-186.29637425282681
20
10.862500953674296
10
-190.29637425282684
20
10.862500953674292
10
-190.29637425282684
20
13.862500953674296
10
-192.29637425282681
20
13.862500953674296
10
-192.29637425282681
20
35.562500953674295
10
-190.29637425282684
20
35.562500953674295
10
-190.29637425282684
20
38.562500953674295
10
-186.29637425282681
20
38.562500953674295
10
-186.29637425282681
20
35.562500953674295
10
-166.29637425282684
20
35.562500953674302
10
-166.29637425282684
20
38.562500953674302
10
-162.29637425282681
20
38.562500953674302
10
-162.29637425282681
20
35.562500953674302
10
-160.29637425282684
20
35.562500953674302
0
LWPOLYLINE
5
101
100
AcDbEntity
8
0
100
AcDbPolyline
90
16
70
1
43
0.0
10
-167.82750312697615
20
32.312500953674302
10
-184.76524537867755
20
32.312500953674295
42
0.28491504644131926
10
-186.55685821163277
20
31.201389842563177
42
-0.16386560240745845
10
-187.68526314171572
20
30.072984912480266
42
0.28491504644131915
10
-188.79637425282681
20
28.281372079525028
10
-188.79637425282684
20
21.343629827823598
42
0.28491504644132382
10
-187.68526314171569
20
19.552016994868332
42
-0.16386560240745768
10
-186.55685821163277
20
18.423612064785409
42
0.28491504644131849
10
-184.76524537867755
20
17.312500953674295
10
-167.82750312697613
20
17.312500953674313
42
0.28491504644131044
10
-166.03589029402087
20
18.423612064785377
42
-0.16386560240746073
10
-164.90748536393795
20
19.552016994868353
42
0.28491504644131904
10
-163.79637425282684
20
21.343629827823602
10
-163.79637425282684
20
28.281372079525021
42
0.28491504644131765
10
-164.90748536393798
20
30.07298491248023
42
-0.16386560240746292
10
-166.0358902940209
20
31.201389842563209
42
0.28491504644131771
0
CIRCLE
5
102
100
AcDbEntity
8
0
100
AcDbCircle
10
-163.79637425282684
20
32.312500953674274
30
0
40
1
0
CIRCLE
5
103
100
AcDbEntity
8
0
100
AcDbCircle
10
-163.79637425282681
20
17.312500953674302
30
0
40
1
0
CIRCLE
5
104
100
AcDbEntity
8
0
100
AcDbCircle
10
-188.79637425282681
20
17.312500953674295
30
0
40
0.99999999999999911
0
CIRCLE
5
105
100
AcDbEntity
8
0
100
AcDbCircle
10
-188.79637425282681
20
32.312500953674302
30
0
40
0.99999999999999811
0
ENDSEC
0
SECTION
2
OBJECTS
0
DICTIONARY
5
C
100
AcDbDictionary
3
ACAD_GROUP
350
D
3
ACAD_MLINESTYLE
350
17
0
DICTIONARY
5
D
100
AcDbDictionary
0
DICTIONARY
5
1A
330
C
100
AcDbDictionary
0
DICTIONARY
5
17
100
AcDbDictionary
0
ENDSEC
0
EOF
