0
SECTION
2
HEADER
9
$INSUNITS
70
4
9
$ACADVER
1
AC1014
9
$HANDSEED
5
FFFF
0
ENDSEC
0
SECTION
2
TABLES
0
TABLE
2
VPORT
5
8
100
AcDbSymbolTable
0
ENDTAB
0
TABLE
2
LTYPE
5
5
100
AcDbSymbolTable
0
LTYPE
5
14
100
AcDbSymbolTableRecord
100
AcDbLinetypeTableRecord
2
BYBLOCK
70
0
0
LTYPE
5
15
100
AcDbSymbolTableRecord
100
AcDbLinetypeTableRecord
2
BYLAYER
70
0
0
ENDTAB
0
TABLE
2
LAYER
5
2
100
AcDbSymbolTable
70
2
0
LAYER
5
50
100
AcDbSymbolTableRecord
100
AcDbLayerTableRecord
2
0
70
0
6
CONTINUOUS
0
ENDTAB
0
TABLE
2
STYLE
5
3
100
AcDbSymbolTable
70
1
0
STYLE
5
11
100
AcDbSymbolTableRecord
100
AcDbTextStyleTableRecord
2
STANDARD
70
0
0
ENDTAB
0
TABLE
2
VIEW
5
6
100
AcDbSymbolTable
70
0
0
ENDTAB
0
TABLE
2
UCS
5
7
100
AcDbSymbolTable
70
0
0
ENDTAB
0
TABLE
2
APPID
5
9
100
AcDbSymbolTable
70
2
0
APPID
5
12
100
AcDbSymbolTableRecord
100
AcDbRegAppTableRecord
2
ACAD
70
0
0
ENDTAB
0
TABLE
2
DIMSTYLE
5
A
100
AcDbSymbolTable
70
1
0
ENDTAB
0
TABLE
2
BLOCK_RECORD
5
1
100
AcDbSymbolTable
70
1
0
BLOCK_RECORD
5
1F
100
AcDbSymbolTableRecord
100
AcDbBlockTableRecord
2
*MODEL_SPACE
0
BLOCK_RECORD
5
1B
100
AcDbSymbolTableRecord
100
AcDbBlockTableRecord
2
*PAPER_SPACE
0
ENDTAB
0
ENDSEC
0
SECTION
2
BLOCKS
0
BLOCK
5
20
100
AcDbEntity
100
AcDbBlockBegin
2
*MODEL_SPACE
0
ENDBLK
5
21
100
AcDbEntity
100
AcDbBlockEnd
0
BLOCK
5
1C
100
AcDbEntity
100
AcDbBlockBegin
2
*PAPER_SPACE
0
ENDBLK
5
1D
100
AcDbEntity
100
AcDbBlockEnd
0
ENDSEC
0
SECTION
2
ENTITIES
0
LWPOLYLINE
5
100
100
AcDbEntity
8
0
100
AcDbPolyline
90
616
70
1
43
0.0
10
-179.97306049841222
20
84.741393467763672
10
-180.00075542861578
20
84.753809095231887
10
-180.06141252074357
20
84.755040164842598
10
-180.74076823514517
20
84.575018306097377
10
-180.79285592040594
20
84.543914098954801
10
-180.8107662574738
20
84.519409711785897
10
-180.82265771566864
20
84.496044093980188
10
-180.83126788869436
20
84.473299094582202
10
-180.8376812526345
20
84.450960210498565
10
-180.84244816029604
20
84.428912499241235
10
-180.84833298087773
20
84.385465796115994
10
-180.85050558389125
20
84.342666117084633
10
-180.84981499519523
20
84.300349587004177
10
-180.84487178440867
20
84.216307473196395
10
-180.84737832273362
20
84.131089036313284
10
-180.85595727472901
20
84.044976848480701
10
-180.86947632336731
20
83.958199947026969
10
-180.88736222496922
20
83.87090113135875
10
-180.90925429520783
20
83.783200429850808
10
-180.93491248171563
20
83.695202125091555
10
-180.96414542071696
20
83.60696435402096
10
-180.99683659865079
20
83.518585221629735
10
-181.03286078141508
20
83.43013412834226
10
-181.07213391450998
20
83.341678415383711
10
-181.11459107981321
20
83.253279610285176
10
-181.90146236667869
20
83.226010654391644
10
-181.94994612104949
20
83.311258251956104
10
-181.99524608727512
20
83.396793760360481
10
-182.0373073991662
20
83.482539786446694
10
-182.07603025643641
20
83.568443039480442
10
-182.11130904510554
20
83.654431092349881
10
-182.14299321709629
20
83.74045562036693
10
-182.1709081219077
20
83.826423364746574
10
-182.19479299533958
20
83.912267228326812
10
-182.2142797639161
20
83.997910909660462
10
-182.22880571963486
20
84.083222273622752
10
-182.2371979694509
20
84.168055986627934
10
-182.23808813814517
20
84.252242492825985
10
-182.24033022903916
20
84.294505723407866
10
-182.24545925454493
20
84.337051987949025
10
-182.25433284122164
20
84.379986532143946
10
-182.26062277876792
20
84.401653757762318
10
-182.26856559425352
20
84.423498168060775
10
-182.27872569097633
20
84.445588675337433
10
-182.29220317096588
20
84.468071824729449
10
-182.31177305741545
20
84.491275100548862
10
-182.36589423619566
20
84.518707460367068
10
-183.05607009956177
20
84.651267996514434
10
-183.11650381753978
20
84.645846743051408
10
-183.14327036898015
20
84.631538259959228
10
-183.16412255067047
20
84.615650812329051
10
-183.18175242301521
20
84.598892432984712
10
-183.19721842469747
20
84.581547740104796
10
-183.21108326371962
20
84.563748868814116
10
-183.23523006793198
20
84.527159806622265
10
-183.25576323454675
20
84.489546965758805
10
-183.27350623576638
20
84.451109578510511
10
-183.30551667364949
20
84.373252688688638
10
-183.34474808928962
20
84.297560233674631
10
-183.38984300704834
20
84.223692125515939
10
-183.43967310407396
20
84.151374525774116
10
-183.49365944283363
20
84.080490681207181
10
-183.55143685669839
20
84.010973858556753
10
-183.61273041113668
20
83.942813522145755
10
-183.67736000585728
20
83.876001679240474
10
-183.74515426110978
20
83.810559041673542
10
-183.81599254493472
20
83.746501355231402
10
-183.88975422537266
20
83.68384436570048
10
-183.96636566376029
20
83.622620896045561
10
-184.68714101670025
20
83.939464156259902
10
-184.69383055854794
20
84.037304459092027
10
-184.69754498850341
20
84.134021058743599
10
-184.69823610171912
20
84.229524087020749
10
-184.69584612515862
20
84.323726582576626
10
-184.69031813343344
20
84.416509972650999
10
-184.681541546517
20
84.507751082341088
10
-184.66939330934702
20
84.597320075402251
10
-184.6536601347637
20
84.685030918008692
10
-184.63407011492308
20
84.770642226400966
10
-184.61013260503108
20
84.853811849045144
10
-184.5808875110763
20
84.933890848781459
10
-184.54516266343887
20
85.01011704563976
10
-184.52885186823184
20
85.049174905162459
10
-184.51501270556565
20
85.08972890380322
10
-184.50437865960834
20
85.132266894967557
10
-184.50064402900693
20
85.154513110704428
10
-184.49831568685826
20
85.17763850371658
10
-184.49788512560423
20
85.201953614124648
10
-184.50027586179669
20
85.22805578364968
10
-184.50783889601706
20
85.257456897196164
10
-184.54469757003184
20
85.305643389158831
10
-185.10901334150788
20
85.724544004913554
10
-185.16581624963936
20
85.745873289607758
10
-185.19613679201422
20
85.744604796599162
10
-185.22181322172102
20
85.739333427615179
10
-185.24496678296981
20
85.731881248159411
10
-185.26642942882296
20
85.722957027627231
10
-185.28664311548289
20
85.712949063200938
10
-185.32428031464335
20
85.690457285479312
10
-185.35910238957283
20
85.665476336205003
10
-185.39175586309253
20
85.63855184181989
10
-185.45437534310577
20
85.582289863103625
10
-185.52256511950489
20
85.531118502814763
10
-185.59524252696033
20
85.484122973706732
10
-185.67152195777174
20
85.440589904241563
10
-185.75091361479278
20
85.400145531471964
10
-185.83313517434294
20
85.362582989898925
10
-185.91793713570652
20
85.327769052686691
10
-186.00514775522942
20
85.295620029239046
10
-186.0946231461763
20
85.266075119832152
10
-186.18623480369448
20
85.239089754272698
10
-186.27988207984981
20
85.214642253239745
10
-186.37546723355527
20
85.192720505601173
10
-186.88740058203098
20
85.790920220384592
10
-186.85097454848406
20
85.881970354972481
10
-186.81234515120383
20
85.970721709913022
10
-186.77153406951129
20
86.057073637272126
10
-186.72851598943112
20
86.14090841193736
10
-186.68327516517695
20
86.222105401949278
10
-186.63578422357435
20
86.300505702593313
10
-186.58596589130579
20
86.375923763787753
10
-186.53373792900737
20
86.448123287659882
10
-186.47894494239625
20
86.516764785459642
10
-186.42129479553995
20
86.581299479835039
10
-186.36020273282941
20
86.640765829924348
10
-186.29493272277114
20
86.693945165320031
10
-186.26329772426601
20
86.722054779340624
10
-186.23322671614108
20
86.752594708930843
10
-186.20519351007516
20
86.786298917620783
10
-186.19217564209458
20
86.80471838540852
10
-186.18004677678761
20
86.824550430322887
10
-186.16911031357105
20
86.846277700042123
10
-186.15993938066597
20
86.870823462672831
10
-186.15399732051844
20
86.900596354463687
10
-186.16629798626062
20
86.960006116961836
10
-186.49297564704355
20
87.582265761693719
10
-186.53488521988032
20
87.626127277427315
10
-186.56277126979646
20
87.638139949255574
10
-186.58818566526111
20
87.644528225755096
10
-186.61227430319485
20
87.647859891952265
10
-186.63548798456367
20
87.649137184566854
10
-186.65804024059054
20
87.64889095612466
10
-186.70170272123332
20
87.644959161386495
10
-186.74392401811301
20
87.637556417381163
10
-186.78502485188778
20
87.627463197190764
10
-186.86586054979261
20
87.603950178022387
10
-186.94949831521865
20
87.58742435538889
10
-187.03535811453997
20
87.5766301175195
10
-187.12296879886145
20
87.570498250373006
10
-187.21205652098058
20
87.56850577431679
10
-187.30243052070614
20
87.570334396177543
10
-187.3939386745059
20
87.575758597822784
10
-187.48646458865937
20
87.584636067972184
10
-187.57989477629303
20
87.596834063534146
10
-187.67414275980411
20
87.612274343702808
10
-187.76912496843693
20
87.63088823586105
10
-187.86475783143575
20
87.65260706739187
10
-188.0664404792827
20
88.413685183491708
10
-187.99411743966456
20
88.479907956529871
10
-187.92081552041466
20
88.543115054804673
10
-187.84657553723153
20
88.603200016688106
10
-187.77144121266062
20
88.660065948740851
10
-187.6954504555535
20
88.713596821146012
10
-187.6186362087154
20
88.763625856295818
10
-187.54103807629343
20
88.80997380154669
10
-187.4626541189289
20
88.852359061025382
10
-187.38350989027794
20
88.890418527302145
10
-187.30356117966889
20
88.92355945641637
10
-187.2227158112633
20
88.950618403671371
10
-187.14083970181343
20
88.970225178712013
10
-187.1001415883797
20
88.981816002399341
10
-187.05979642374871
20
88.996288670429578
10
-187.01991442842541
20
89.01448760651887
10
-187.00019732447623
20
89.025442093827735
10
-186.98066699092442
20
89.038043401318788
10
-186.96138386797244
20
89.052868891069892
10
-186.94247053132051
20
89.071010064409961
10
-186.92419720666345
20
89.095248481651552
10
-186.90950330085155
20
89.154111546384698
10
-186.93384660240048
20
89.856494999980924
10
-186.95257987801369
20
89.914201345754861
10
-186.97248016876873
20
89.937116120296125
10
-186.99260812602097
20
89.953899975941184
10
-187.01286626589294
20
89.967362573984261
10
-187.03322576835987
20
89.978578702479609
10
-187.05365805307804
20
89.988142316939246
10
-187.0946983428156
20
90.003547755719424
10
-187.13594390506859
20
90.015191072406168
10
-187.17735271696921
20
90.023931588854197
10
-187.26039341827149
20
90.037812311218374
10
-187.34290960392531
20
90.059220548520088
10
-187.42496436815259
20
90.086747109841696
10
-187.50656036935504
20
90.119231093429931
10
-187.58768125377946
20
90.156102646196501
10
-187.6683093362808
20
90.196959540308711
10
-187.74840065025029
20
90.241553850505937
10
-187.82791619512554
20
90.289688399318464
10
-187.9068028000128
20
90.341222570761431
10
-187.98501976905402
20
90.39602241019189
10
-188.06251889740165
20
90.453998049415944
10
-188.1392548870551
20
90.515069188428527
10
-187.99074180949685
20
91.288277649286997
10
-187.89684929277536
20
91.316562122628099
10
-187.80338260503765
20
91.341707253794652
10
-187.7104228939366
20
91.363636133372793
10
-187.61806087531383
20
91.382268945101487
10
-187.52636522178648
20
91.397522118225098
10
-187.43545620141026
20
91.409275504528281
10
-187.34542707297024
20
91.417354453510043
10
-187.25641978384314
20
91.421538169021019
10
-187.1685921470326
20
91.421486070600153
10
-187.0821865137863
20
91.416654222719075
10
-186.99760813424228
20
91.405968440908197
10
-186.91534183073634
20
91.388100437839626
10
-186.87363277909333
20
91.380882963086364
10
-186.83101476266202
20
91.37641859252453
10
-186.7871783330327
20
91.375512025882585
10
-186.76465757296083
20
91.376825169485812
10
-186.74159821607469
20
91.379702414545406
10
-186.71779242938695
20
91.384698112426406
10
-186.69287117631552
20
91.392833640608188
10
-186.66590017809685
20
91.406744378169776
10
-186.62712122080205
20
91.453411986088753
10
-186.34429760265763
20
92.09678607885003
10
-186.33614048261103
20
92.156903149223922
10
-186.34412742398496
20
92.186185929691206
10
-186.35498334446964
20
92.210050790132271
10
-186.36739886658009
20
92.230964880785947
10
-186.38086688069279
20
92.249907915785315
10
-186.39512383998328
20
92.267388464750653
10
-186.42543087105628
20
92.29906656907022
10
-186.45754058281
20
92.327458772931692
10
-186.49105038789031
20
92.353304010293471
10
-186.55983767672717
20
92.401834182564613
10
-186.62490272673782
20
92.456929858313799
10
-186.68687715384064
20
92.517333118125791
10
-186.74630137436804
20
92.582001872688537
10
-186.80339194184836
20
92.650410475203401
10
-186.85831333062706
20
92.722205870173582
10
-186.91112306967733
20
92.797130200245988
10
-186.96187033133504
20
92.875001305930027
10
-187.0105909652525
20
92.955661977806699
10
-187.05728545517383
20
93.038976202033751
10
-187.10195343719536
20
93.124839576182353
10
-187.14459454741356
20
93.213147697823644
10
-186.67531200430091
20
93.845350145603419
10
-186.57843639914569
20
93.830101970164179
10
-186.48331491030211
20
93.81219927488624
10
-186.3900556946939
20
93.79161965264143
10
-186.29874486602006
20
93.76833694180668
10
-186.20952304026542
20
93.742297971488227
10
-186.12251545153197
20
93.713433341261748
10
-186.0378951748657
20
93.681659116467841
10
-185.955881914705
20
93.646804037196631
10
-185.87677567549346
20
93.608651545537711
10
-185.80102337509746
20
93.566815035222177
10
-185.72946313541291
20
93.520475511967547
10
-185.66309452599342
20
93.468691774076817
10
-185.62864655905005
20
93.444093072805416
10
-185.59218479892368
20
93.42156935025514
10
-185.55308501446302
20
93.401749204421037
10
-185.53222507247864
20
93.393151617507328
10
-185.51019115450259
20
93.385746792205566
10
-185.48658709045941
20
93.379916368738407
10
-185.46060140382048
20
93.376429441245193
10
-185.43026402394827
20
93.377264095007774
10
-185.37507923715111
20
93.402474062558994
10
-184.84111264445897
20
93.859431923313139
10
-184.80767494622168
20
93.910057832632077
10
-184.8021737505656
20
93.939905814318649
10
-184.80159458935734
20
93.966105498396146
10
-184.80370965444681
20
93.990337024902118
10
-184.80761893250343
20
94.01325006756781
10
-184.81288301465031
20
94.035187146213062
10
-184.82643702109868
20
94.076877435669303
10
-184.84304848111506
20
94.116384704939122
10
-184.86203333131249
20
94.154209411068564
10
-184.90294978540834
20
94.227793044509284
10
-184.93766194791849
20
94.305654909328211
10
-184.96730576614257
20
94.386958690001364
10
-184.99276962602312
20
94.471016440042263
10
-185.01453581133484
20
94.557420357605224
10
-185.03286690141377
20
94.645933900754443
10
-185.04793270055529
20
94.736359164212942
10
-185.05987346084055
20
94.82853857465804
10
-185.0687653638762
20
94.922344474884866
10
-185.07469040496287
20
95.017668344066152
10
-185.07767983161028
20
95.114406627420777
10
-185.07778027321098
20
95.21247199969828
10
-184.38066417310236
20
95.578456604043836
10
-184.30000609560489
20
95.522673917098629
10
-184.2220770067286
20
95.46527830711841
10
-184.14697174071367
20
95.406272317046529
10
-184.07481298871872
20
95.345681380698693
10
-184.00571762820834
20
95.28351179551305
10
-183.93985037759123
20
95.219755324692727
10
-183.87740756668921
20
95.154404579088677
10
-183.81864002761003
20
95.087425160281057
10
-183.76391716522153
20
95.018725744461406
10
-183.71382179139192
20
94.948160625376104
10
-183.66944552729066
20
94.875366811053752
10
-183.63211919880683
20
94.799908638347986
10
-183.61176428247688
20
94.762803250437386
10
-183.58868110095079
20
94.726693939177395
10
-183.56205551053398
20
94.691859397976401
10
-183.54698586316343
20
94.675075152134895
10
-183.53035781257208
20
94.658837513369917
10
-183.51161264931557
20
94.643337122032051
10
-183.48970950001532
20
94.628932004046433
10
-183.46201456981177
20
94.616516376578218
10
-183.401357477684
20
94.615285306967507
10
-182.72200176328238
20
94.795307165712728
10
-182.66991407802163
20
94.82641137285529
10
-182.65200374095375
20
94.850915760024193
10
-182.64011228275891
20
94.874281377829917
10
-182.63150210973319
20
94.897026377227888
10
-182.62508874579308
20
94.91936526131154
10
-182.6203218381315
20
94.94141297256887
10
-182.61443701754985
20
94.984859675694111
10
-182.61226441453633
20
95.027659354725472
10
-182.61295500323232
20
95.069975884805928
10
-182.61788864583011
20
95.154020905460726
10
-182.61539167569396
20
95.239236435496807
10
-182.60681272369857
20
95.325348623329404
10
-182.59329367506024
20
95.412125524783136
10
-182.57540777345832
20
95.499424340451355
10
-182.55351570321974
20
95.587125041959268
10
-182.52785751671189
20
95.67512334671855
10
-182.49862457771059
20
95.763361117789145
10
-182.46593339977679
20
95.851740250180356
10
-182.42990921701249
20
95.940191343467831
10
-182.3906360839176
20
96.028647056426394
10
-182.34817891861437
20
96.117045861524929
10
-181.56130763174889
20
96.144314817418461
10
-181.51282387737808
20
96.059067219854001
10
-181.46752391115245
20
95.973531711449624
10
-181.42546259926135
20
95.887785685363411
10
-181.38673974199111
20
95.801882432329663
10
-181.35146095332203
20
95.715894379460224
10
-181.31977678133126
20
95.629869851443175
10
-181.29186187651987
20
95.543902107063531
10
-181.26797700308796
20
95.458058243483293
10
-181.24849023451145
20
95.372414562149643
10
-181.23396427879271
20
95.287103198187353
10
-181.22557202897664
20
95.202269485182157
10
-181.2246818602824
20
95.11808297898412
10
-181.22243976938842
20
95.075819748402225
10
-181.21731074388262
20
95.03327348386108
10
-181.20843715720588
20
94.990338939666145
10
-181.20214721965965
20
94.968671714047787
10
-181.19420440417403
20
94.94682730374933
10
-181.18404430745125
20
94.924736796472672
10
-181.17056682746167
20
94.902253647080656
10
-181.15099694101212
20
94.879050371261243
10
-181.09687576223192
20
94.851618011443009
10
-180.40669989886578
20
94.719057475295671
10
-180.3462661808878
20
94.724478728758697
10
-180.31949962944742
20
94.738787211850877
10
-180.29864744775708
20
94.754674659481054
10
-180.28101757541236
20
94.771433038825393
10
-180.26555157373008
20
94.788777731705309
10
-180.2516867347079
20
94.806576602995989
10
-180.2275399304956
20
94.84316566518784
10
-180.20700967072781
20
94.880788074240087
10
-180.1892637626612
20
94.919215893299594
10
-180.15725332477803
20
94.997072783121467
10
-180.11802190913795
20
95.072765238135446
10
-180.07292699137923
20
95.146633346294166
10
-180.02309689435361
20
95.218950946035989
10
-179.96911055559394
20
95.289834790602924
10
-179.91133314172919
20
95.359351613253352
10
-179.85003958729084
20
95.42751194966435
10
-179.78540999257024
20
95.494323792569631
10
-179.71761573731777
20
95.559766430136563
10
-179.64677745349286
20
95.623824116578703
10
-179.57301577305492
20
95.686481106109625
10
-179.49640433466729
20
95.747704575764544
10
-178.77562898172732
20
95.430861315550203
10
-178.76893943987963
20
95.333021012718078
10
-178.76522500992417
20
95.236304413066506
10
-178.76453389670846
20
95.140801384789341
10
-178.76692387326892
20
95.046598889233479
10
-178.77245186499411
20
94.953815499159106
10
-178.78122845191058
20
94.862574389469017
10
-178.79337668908056
20
94.773005396407825
10
-178.80910986366388
20
94.685294553801427
10
-178.82869988350447
20
94.599683245409125
10
-178.85263739339646
20
94.516513622764947
10
-178.88188248735128
20
94.436434623028617
10
-178.91760733498867
20
94.360208426170345
10
-178.93392103704269
20
94.321160134836433
10
-178.94775729286192
20
94.280596568006871
10
-178.95839133881921
20
94.238058576842548
10
-178.96212596942064
20
94.215812361105677
10
-178.96445431156931
20
94.192686968093511
10
-178.96488487282335
20
94.168371857685443
10
-178.96249413663085
20
94.142269688160411
10
-178.95493110241051
20
94.112868574613927
10
-178.91807242839573
20
94.06468208265126
10
-178.3537566569197
20
93.645781466896523
10
-178.29695374878821
20
93.624452182202333
10
-178.26663320641333
20
93.625720675210943
10
-178.24095677670655
20
93.630992044194926
10
-178.21780321545776
20
93.638444223650694
10
-178.19634056960462
20
93.647368444182874
10
-178.17612688294469
20
93.657376408609153
10
-178.13848968378423
20
93.679868186330793
10
-178.10366760885472
20
93.704849135605102
10
-178.07101413533505
20
93.731773629990215
10
-178.00839465532181
20
93.78803560870648
10
-177.94020487892266
20
93.839206968995342
10
-177.86752747146721
20
93.886202498103373
10
-177.79124804065583
20
93.929735567568542
10
-177.71185638363477
20
93.970179940338141
10
-177.62963482408458
20
94.00774248191118
10
-177.54483286272105
20
94.042556419123414
10
-177.4576222431981
20
94.074705442571059
10
-177.36814685225127
20
94.104250351977953
10
-177.2765351947331
20
94.131235717537407
10
-177.18288791857776
20
94.15568321857036
10
-177.08730276487228
20
94.177604966208932
10
-176.5753694163966
20
93.579405251425513
10
-176.61179544994351
20
93.48835511683761
10
-176.65042484722375
20
93.399603761897083
10
-176.69123592891629
20
93.313251834537979
10
-176.73425400899646
20
93.229417059872745
10
-176.77949483325062
20
93.148220069860827
10
-176.8269857748532
20
93.069819769216778
10
-176.87680410712179
20
92.994401708022352
10
-176.9290320694202
20
92.922202184150223
10
-176.98382505603132
20
92.853560686350463
10
-177.0414752028876
20
92.789025991975066
10
-177.10256726559811
20
92.729559641885757
10
-177.16783727565641
20
92.676380306490074
10
-177.19947227416154
20
92.648270692469481
10
-177.2295432822865
20
92.617730762879248
10
-177.25757648835238
20
92.584026554189322
10
-177.27059435633296
20
92.565607086401585
10
-177.28272322163997
20
92.545775041487218
10
-177.29365968485649
20
92.524047771767982
10
-177.3028306177616
20
92.499502009137274
10
-177.30877267790908
20
92.469729117346418
10
-177.29647201216693
20
92.410319354848269
10
-176.96979435138402
20
91.788059710116386
10
-176.92788477854725
20
91.74419819438279
10
-176.89999872863112
20
91.732185522554516
10
-176.87458433316647
20
91.725797246055009
10
-176.85049569523272
20
91.72246557985784
10
-176.82728201386391
20
91.721188287243237
10
-176.80472975783701
20
91.721434515685445
10
-176.76106727719423
20
91.72536631042361
10
-176.71884598031457
20
91.732769054428928
10
-176.67774514653979
20
91.742862274619341
10
-176.59690944863496
20
91.766375293787718
10
-176.5132716832089
20
91.782901116421215
10
-176.4274118838876
20
91.793695354290605
10
-176.3397916313773
20
91.7998301282841
10
-176.25071347744699
20
91.801819697493301
10
-176.16033947772141
20
91.799991075632562
10
-176.06883132392164
20
91.794566873987321
10
-175.9763054097682
20
91.785689403837921
10
-175.88287522213454
20
91.773491408275959
10
-175.78862723862346
20
91.758051128107326
10
-175.69364502999065
20
91.73943723594904
10
-175.59801216699179
20
91.717718404418221
10
-175.39632951914484
20
90.956640288318397
10
-175.46865255876298
20
90.890417515280262
10
-175.54195447801288
20
90.827210417005404
10
-175.61619446119605
20
90.767125455121999
10
-175.69132878576693
20
90.710259523069254
10
-175.76731954287408
20
90.656728650664093
10
-175.84413378971217
20
90.606699615514273
10
-175.92173192213411
20
90.560351670263401
10
-176.00011587949868
20
90.517966410784709
10
-176.07926010814961
20
90.47990694450796
10
-176.15920881875869
20
90.446766015393735
10
-176.24005418716428
20
90.41970706813872
10
-176.32193029661414
20
90.400100293098092
10
-176.36262841004788
20
90.388509469410792
10
-176.40297357467887
20
90.374036801380527
10
-176.44285557000217
20
90.355837865291235
10
-176.46257267395134
20
90.34488337798237
10
-176.4821030075031
20
90.332282070491317
10
-176.5013861304551
20
90.317456580740213
10
-176.52029946710701
20
90.299315407400115
10
-176.5385727917641
20
90.275076990158553
10
-176.55326669757599
20
90.216213925425407
10
-176.52892339602704
20
89.513830471829166
10
-176.51019012041388
20
89.456124126055244
10
-176.49028982965885
20
89.43320935151398
10
-176.47016187240655
20
89.416425495868907
10
-176.44990373253461
20
89.40296289782583
10
-176.42954423006771
20
89.391746769330496
10
-176.40911194534954
20
89.382183154870859
10
-176.36807165561194
20
89.366777716090681
10
-176.32682609335893
20
89.355134399403937
10
-176.28541728145834
20
89.346393882955908
10
-176.20237658015606
20
89.332513160591716
10
-176.11986039450227
20
89.311104923290003
10
-176.03780563027499
20
89.283578361968395
10
-175.9562096290725
20
89.251094378380174
10
-175.87508874464805
20
89.214222825613632
10
-175.79446066214678
20
89.173365931501394
10
-175.71436934817729
20
89.128771621304153
10
-175.63485380330204
20
89.080637072491641
10
-175.55596719841475
20
89.029102901048674
10
-175.47775022937356
20
88.974303061618215
10
-175.4002511010259
20
88.916327422394161
10
-175.32351511137244
20
88.855256283381578
10
-175.47202818893072
20
88.082047822523108
10
-175.56592070565219
20
88.053763349182006
10
-175.65938739338989
20
88.028618218015424
10
-175.75234710449095
20
88.006689338437312
10
-175.84470912311372
20
87.988056526708618
10
-175.9364047766411
20
87.972803353585007
10
-176.02731379701731
20
87.961049967281824
10
-176.11734292545734
20
87.952971018300047
10
-176.20635021458443
20
87.9487873027891
10
-176.29417785139498
20
87.948839401209952
10
-176.38058348464128
20
87.95367124909103
10
-176.46516186418529
20
87.964357030901908
10
-176.54742816769118
20
87.982225033970479
10
-176.58913721933419
20
87.989442508723741
10
-176.63175523576555
20
87.993906879285575
10
-176.67559166539488
20
87.994813445927491
10
-176.69811242546675
20
87.993500302324293
10
-176.72117178235288
20
87.990623057264685
10
-176.74497756904063
20
87.985627359383699
10
-176.76989882211205
20
87.977491831201903
10
-176.79686982033073
20
87.963581093640329
10
-176.83564877762552
20
87.916913485721352
10
-177.11847239576994
20
87.273539392960075
10
-177.12662951581652
20
87.213422322586183
10
-177.11864257444259
20
87.184139542118899
10
-177.10778665395793
20
87.160274681677819
10
-177.09537113184749
20
87.139360591024158
10
-177.08190311773475
20
87.12041755602479
10
-177.06764615844423
20
87.102937007059452
10
-177.0373391273713
20
87.071258902739871
10
-177.00522941561755
20
87.042866698878413
10
-176.97171961053726
20
87.01702146151662
10
-176.9029323217004
20
86.968491289245478
10
-176.83786727168976
20
86.913395613496306
10
-176.77589284458693
20
86.852992353684314
10
-176.71646862405953
20
86.788323599121568
10
-176.65937805657919
20
86.719914996606704
10
-176.60445666780052
20
86.648119601636537
10
-176.55164692875024
20
86.573195271564117
10
-176.50089966709254
20
86.495324165880092
10
-176.45217903317507
20
86.414663494003406
10
-176.40548454325375
20
86.331349269776339
10
-176.36081656123218
20
86.245485895627752
10
-176.31817545101401
20
86.157177773986447
10
-176.78745799412664
20
85.524975326206686
10
-176.88433359928186
20
85.540223501645926
10
-176.97945508812546
20
85.558126196923865
10
-177.07271430373368
20
85.578705819168675
10
-177.16402513240752
20
85.601988530003425
10
-177.25324695816215
20
85.628027500321878
10
-177.34025454689558
20
85.656892130548357
10
-177.42487482356185
20
85.688666355342278
10
-177.50688808372257
20
85.72352143461346
10
-177.58599432293411
20
85.761673926272394
10
-177.66174662333009
20
85.803510436587928
10
-177.73330686301466
20
85.849849959842558
10
-177.79967547243413
20
85.901633697733288
10
-177.83412343937752
20
85.926232399004689
10
-177.87058519950386
20
85.948756121554979
10
-177.90968498396452
20
85.968576267389068
10
-177.93054492594894
20
85.977173854302748
10
-177.95257884392498
20
85.984578679604539
10
-177.97618290796811
20
85.990409103071684
10
-178.00216859460707
20
85.993896030564912
10
-178.03250597447928
20
85.993061376802316
10
-178.08769076127646
20
85.967851409251082
10
-178.62165735396857
20
85.510893548496952
10
-178.65509505220589
20
85.460267639178028
10
-178.66059624786197
20
85.430419657491456
10
-178.66117540907024
20
85.404219973413944
10
-178.65906034398077
20
85.379988446907987
10
-178.65515106592412
20
85.357075404242281
10
-178.64988698377726
20
85.335138325597043
10
-178.63633297732886
20
85.293448036140802
10
-178.61972151731248
20
85.253940766870983
10
-178.60073666711509
20
85.216116060741541
10
-178.55982021301924
20
85.142532427300807
10
-178.52510805050906
20
85.064670562481865
10
-178.495464232285
20
84.983366781808741
10
-178.4700003724044
20
84.899309031767842
10
-178.44823418709274
20
84.812905114204881
10
-178.42990309701378
20
84.724391571055662
10
-178.41483729787228
20
84.633966307597163
10
-178.40289653758703
20
84.541786897152065
10
-178.39400463455138
20
84.447980996925224
10
-178.38807959346468
20
84.352657127743953
10
-178.38509016681726
20
84.255918844389313
10
-178.3849897252166
20
84.157853472111825
10
-179.08210582532521
20
83.791868867766254
10
-179.16276390282269
20
83.847651554711462
10
-179.24069299169895
20
83.90504716469168
10
-179.31579825771388
20
83.964053154763576
10
-179.38795700970886
20
84.024644091111412
10
-179.45704280203043
20
84.086816583144071
10
-179.52291962083635
20
84.150570147117378
10
-179.58536243173836
20
84.215920892721414
10
-179.64412997081752
20
84.282900311529048
10
-179.69885283320599
20
84.351599727348685
10
-179.7489482070356
20
84.422164846433986
10
-179.79332447113688
20
84.494958660756353
10
-179.83065079962071
20
84.570416833462119
10
-179.85100862279768
20
84.60753178956152
10
-179.87408889747678
20
84.64363153263271
10
-179.90071448789354
20
84.678466073833704
10
-179.91578413526412
20
84.69525031967521
10
-179.93241218585547
20
84.711487958440173
10
-179.95115734911198
20
84.726988349778054
0
CIRCLE
5
101
100
AcDbEntity
8
0
100
AcDbCircle
10
-181.73138499921379
20
89.685162735905038
30
0
40
2.3500000000000001
0
ENDSEC
0
SECTION
2
OBJECTS
0
DICTIONARY
5
C
100
AcDbDictionary
3
ACAD_GROUP
350
D
3
ACAD_MLINESTYLE
350
17
0
DICTIONARY
5
D
100
AcDbDictionary
0
DICTIONARY
5
1A
330
C
100
AcDbDictionary
0
DICTIONARY
5
17
100
AcDbDictionary
0
ENDSEC
0
EOF
