0
SECTION
2
HEADER
9
$INSUNITS
70
4
9
$ACADVER
1
AC1014
9
$HANDSEED
5
FFFF
0
ENDSEC
0
SECTION
2
TABLES
0
TABLE
2
VPORT
5
8
100
AcDbSymbolTable
0
ENDTAB
0
TABLE
2
LTYPE
5
5
100
AcDbSymbolTable
0
LTYPE
5
14
100
AcDbSymbolTableRecord
100
AcDbLinetypeTableRecord
2
BYBLOCK
70
0
0
LTYPE
5
15
100
AcDbSymbolTableRecord
100
AcDbLinetypeTableRecord
2
BYLAYER
70
0
0
ENDTAB
0
TABLE
2
LAYER
5
2
100
AcDbSymbolTable
70
2
0
LAYER
5
50
100
AcDbSymbolTableRecord
100
AcDbLayerTableRecord
2
0
70
0
6
CONTINUOUS
0
ENDTAB
0
TABLE
2
STYLE
5
3
100
AcDbSymbolTable
70
1
0
STYLE
5
11
100
AcDbSymbolTableRecord
100
AcDbTextStyleTableRecord
2
STANDARD
70
0
0
ENDTAB
0
TABLE
2
VIEW
5
6
100
AcDbSymbolTable
70
0
0
ENDTAB
0
TABLE
2
UCS
5
7
100
AcDbSymbolTable
70
0
0
ENDTAB
0
TABLE
2
APPID
5
9
100
AcDbSymbolTable
70
2
0
APPID
5
12
100
AcDbSymbolTableRecord
100
AcDbRegAppTableRecord
2
ACAD
70
0
0
ENDTAB
0
TABLE
2
DIMSTYLE
5
A
100
AcDbSymbolTable
70
1
0
ENDTAB
0
TABLE
2
BLOCK_RECORD
5
1
100
AcDbSymbolTable
70
1
0
BLOCK_RECORD
5
1F
100
AcDbSymbolTableRecord
100
AcDbBlockTableRecord
2
*MODEL_SPACE
0
BLOCK_RECORD
5
1B
100
AcDbSymbolTableRecord
100
AcDbBlockTableRecord
2
*PAPER_SPACE
0
ENDTAB
0
ENDSEC
0
SECTION
2
BLOCKS
0
BLOCK
5
20
100
AcDbEntity
100
AcDbBlockBegin
2
*MODEL_SPACE
0
ENDBLK
5
21
100
AcDbEntity
100
AcDbBlockEnd
0
BLOCK
5
1C
100
AcDbEntity
100
AcDbBlockBegin
2
*PAPER_SPACE
0
ENDBLK
5
1D
100
AcDbEntity
100
AcDbBlockEnd
0
ENDSEC
0
SECTION
2
ENTITIES
0
LWPOLYLINE
5
100
100
AcDbEntity
8
0
100
AcDbPolyline
90
426
70
1
43
0.0
10
-176.8951832299243
20
108.88677438169469
10
-176.67770392304988
20
108.95336506081675
10
-176.46078173670685
20
109.01049131629466
10
-176.24460629022195
20
109.05746166819362
10
-176.02945877737363
20
109.09322116152137
10
-175.92237035472266
20
109.1063817238618
10
-175.86897868776242
20
109.11165000077075
10
-175.81569462365843
20
109.11596265138932
10
-175.67572830136524
20
110.00446228269487
10
-175.72511050997321
20
110.02495488174381
10
-175.77429852406755
20
110.04637661397629
10
-175.87215288248049
20
110.0918159329258
10
-176.06589732864256
20
110.19198715598486
10
-176.25715828000898
20
110.30313292919703
10
-176.4460147472883
20
110.42418725195974
10
-176.63248316649265
20
110.5544056581243
10
-176.81653345784457
20
110.69325233503568
10
-176.61856062954359
20
111.49013491375052
10
-176.39093023268461
20
111.52670267908967
10
-176.1652048841577
20
111.55451868522005
10
-175.94164453223655
20
111.57310698373153
10
-175.72059883491113
20
111.58183429800262
10
-175.50251695217474
20
111.57968551460326
10
-175.39477634347884
20
111.57404774865951
10
-175.34127182742753
20
111.5699653591038
10
-175.28804684422326
20
111.56495800394401
10
-174.99591950625256
20
112.41565817340232
10
-175.04099506756194
20
112.44441026924635
10
-175.08571764901853
20
112.4740556204879
10
-175.17418982211754
20
112.53580178436991
10
-175.3476008136191
20
112.66808353206881
10
-175.51665480026537
20
112.81075969202375
10
-175.68162379495891
20
112.96277134546692
10
-175.84264629554815
20
113.12339404893245
10
-175.99979070524046
20
113.29209094024507
10
-175.82640320633095
20
114.07404380829479
10
-175.59586876490627
20
114.07650828655281
10
-175.36850443713107
20
114.07059037983743
10
-175.14465794192844
20
114.05588009846012
10
-174.92476449349601
20
114.03177628637525
10
-174.70939894447747
20
113.99735669393421
10
-174.60367925764126
20
113.97583264965193
10
-174.55137137320295
20
113.96386980851956
10
-174.49947672504507
20
113.95103838477283
10
-174.084605179633
20
114.74910870868769
10
-174.12493154992845
20
114.78421408436679
10
-174.16477043980282
20
114.82015824656243
10
-174.24312718670137
20
114.89431797405992
10
-174.39502553000975
20
115.05082295432589
10
-174.54109688602097
20
115.21696072839751
10
-174.68173794605138
20
115.39171599534623
10
-174.81721131897703
20
115.57440755287612
10
-174.94764015980576
20
115.76451373745772
10
-174.50686556397227
20
116.45727999809161
10
-174.27940559323798
20
116.41967676618728
10
-174.05652625177353
20
116.37436497839471
10
-173.83863088008144
20
116.32101084371102
10
-173.6262678900635
20
116.25908018578497
10
-173.42014938758172
20
116.1877920403289
10
-173.31976861656221
20
116.14823935297991
10
-173.27033619291217
20
116.12736641513089
10
-173.22145059577485
20
116.10572160893364
10
-172.67430776772795
20
116.81963218654319
10
-172.70792314490427
20
116.86120323849141
10
-172.74091745142715
20
116.90351636269008
10
-172.80520092894176
20
116.99016288648438
10
-172.92762055567084
20
117.17066503616516
10
-173.04262311734442
20
117.35963385245249
10
-173.15078529809915
20
117.55616937124498
10
-173.25246996101123
20
117.75960907433431
10
-173.3479116272996
20
117.96947599233748
10
-172.79353146369408
20
118.57517541507579
10
-172.57605068301876
20
118.49863767619587
10
-172.36442519482591
20
118.41532317198593
10
-172.15911957872888
20
118.32493346354637
10
-171.96072480165304
20
118.22706998082947
10
-171.77011995725107
20
118.12107265238012
10
-171.67813328535169
20
118.06468512042613
10
-171.63307042429452
20
118.03555558394319
10
-171.58868797998238
20
118.00575089337826
10
-170.92589240993021
20
118.61379991387378
10
-170.95177319695767
20
118.66057460046423
10
-170.97691605264143
20
118.70797980851603
10
-171.02519061750172
20
118.80447218466318
10
-171.11440531251006
20
119.00348923052223
10
-171.19484341530716
20
119.20955453337291
10
-171.26723003678495
20
119.42188157292215
10
-171.33204306921672
20
119.63989709620328
10
-171.38958572195688
20
119.86314092490134
10
-170.73845430161123
20
120.36337734744905
10
-170.5375700891866
20
120.25023756914555
10
-170.34363363898757
20
120.13143830336978
10
-170.15712613711756
20
120.00677397792398
10
-169.97874985518675
20
119.87594456851978
10
-169.80944683439972
20
119.73845534457743
10
-169.72865257663156
20
119.66695941896819
10
-169.68933242561306
20
119.63044762133718
10
-169.65080582751773
20
119.59338150093063
10
-168.89248572436298
20
120.07709669343288
10
-168.90985175679225
20
120.12766283784246
10
-168.92637789523647
20
120.17871083085389
10
-168.95715947875559
20
120.28211523251586
10
-169.01046499130427
20
120.49360526863985
10
-169.05389460813439
20
120.71050632880915
10
-169.08830696884422
20
120.93218245860905
10
-169.1142801583814
20
121.15813294077236
10
-169.1321915687148
20
121.38798124469476
10
-168.40408612072883
20
121.7675465213178
10
-168.22589650063063
20
121.6212433227019
10
-168.05553707747879
20
121.47057222823435
10
-167.89351864889659
20
121.31541497641396
10
-167.74055447545288
20
121.15560525623667
10
-167.59770712202874
20
120.9908044590067
10
-167.53054842545524
20
120.9063551414161
10
-167.49817488195563
20
120.86356920302906
10
-161.59639335245757
20
118.35963298259227
10
-147.61497332529032
20
117.51843486366749
10
-140.17261624018943
20
119.77227602363037
10
-137.26884529838605
20
125.19878701756802
10
-137.31279795876878
20
125.34392208713108
10
-142.342557121298
20
141.95257422562815
10
-147.50744947888813
20
144.71635087000752
10
-149.28898519822252
20
145.62526802831746
42
-0.88210030600093281
10
-144.77992679215328
20
154.46331067888639
10
-142.99839107281895
20
153.55439352057647
10
-134.16194038224018
20
148.87281930597015
10
-126.58514573078688
20
124.22147301811252
10
-133.20589148198462
20
111.72484460502758
10
-147.97882049155695
20
102.98378275831104
10
-147.93302420921887
20
102.95621222572976
10
-147.88754463347317
20
102.92774514592942
10
-147.79749267757893
20
102.86830884804159
10
-147.62072471252378
20
102.74056010684188
10
-147.4480299015209
20
102.60231308418614
10
-147.27917304656498
20
102.45463711719366
10
-147.11404192008072
20
102.2982414342909
10
-146.95257833068314
20
102.13367377059319
10
-147.26636436787769
20
101.37489066996619
10
-147.49689880930148
20
101.37242619162694
10
-147.72426313707876
20
101.37834409826283
10
-147.94810035176903
20
101.39305065504982
10
-148.16799935621509
20
101.41716747208761
10
-148.383368629758
20
101.45157778393587
10
-148.48908831660171
20
101.47310182818126
10
-148.54139620104419
20
101.48506466929533
10
-148.59329084920657
20
101.49789609302395
10
-149.00815311382232
20
100.69982204445208
10
-148.96783602403218
20
100.66472039329915
10
-148.92799340963296
20
100.628785511635
10
-148.84963110670316
20
100.5546127791351
10
-148.69772903882796
20
100.39811707943983
10
-148.55166696327638
20
100.23198302993137
10
-148.41102034717946
20
100.05721475800202
10
-148.27555625470762
20
99.874526925031631
10
-148.14511813329398
20
99.684417015984025
10
-148.57943101440807
20
98.961669978833484
10
-148.80623002956082
20
99.003061424348942
10
-149.02832856067539
20
99.05206571743976
10
-149.2452930390177
20
99.109042883308476
10
-149.45660940700063
20
99.174492666676628
10
-149.66151337759806
20
99.249200093223806
10
-149.76121834823712
20
99.290426536155962
10
-149.81029133313015
20
99.312105885686776
10
-149.85881006466519
20
99.334560994972179
10
-150.41775967721324
20
98.62986501162986
10
-150.38484443910949
20
98.587731244371767
10
-150.35185013258666
20
98.545418120173139
10
-150.28755737455455
20
98.45876787186657
10
-150.16513402331316
20
98.278275002703396
10
-150.05014446666939
20
98.089300630410733
10
-149.94197856140238
20
97.892774392135848
10
-149.84029762300264
20
97.689325408528902
10
-149.74485595671422
20
97.47945849052573
10
-150.29923612031976
20
96.873759067787432
10
-150.51670762047752
20
96.950293082155099
10
-150.72833866467573
20
97.033620591394907
10
-150.93364800528502
20
97.124001019316864
10
-151.13204278236074
20
97.221864502033739
10
-151.32264762676283
20
97.327861830483116
10
-151.41463429866212
20
97.384249362437089
10
-151.45968787920174
20
97.413375174407776
10
-151.50406659900159
20
97.443189145490294
10
-152.16687517408357
20
96.835134568989517
10
-152.14099438705622
20
96.788359882398993
10
-152.11583852634254
20
96.740960230352641
10
-152.06757696651221
20
96.64446229820004
10
-151.97835854699161
20
96.445454532858633
10
-151.89792416870668
20
96.239379949490313
10
-151.82553754722892
20
96.027052909941091
10
-151.76072079028489
20
95.809046667177569
10
-151.70317258153938
20
95.585789833449709
10
-152.35430955789047
20
95.085566415931808
10
-152.55518821430974
20
95.198693189205429
10
-152.74913022051413
20
95.317505460011091
10
-152.93562844186653
20
95.442166060944629
10
-153.11401772882715
20
95.57298991434358
10
-153.28332074961415
20
95.710479138285919
10
-153.36411128287008
20
95.781984344412649
10
-153.40343143388861
20
95.818496142043799
10
-153.44196175649617
20
95.855552981932732
10
-154.20028185965094
20
95.371837789430487
10
-154.18291582722159
20
95.321271645020872
10
-154.16637668374756
20
95.270229208014783
10
-154.13560810525831
20
95.166819250347473
10
-154.08229886819743
20
94.955338494741028
10
-154.03887297587949
20
94.738428154054205
10
-154.00444761013989
20
94.51675758025965
10
-153.97847442060271
20
94.290807098096252
10
-153.96057601529913
20
94.060953238168594
10
-154.68868146328506
20
93.68138796154534
10
-154.86686180286569
20
93.827687435648954
10
-155.03723050653508
20
93.978362254628792
10
-155.19924893511728
20
94.133519506449161
10
-155.35220010353115
20
94.293334782631774
10
-155.49506046198519
20
94.458130023856427
10
-155.56220987804102
20
94.54257561693484
10
-155.59459270205826
20
94.585365279834065
10
-155.6261060205706
20
94.628549480638767
10
-156.4569002066435
20
94.283860002711691
10
-156.44858010467604
20
94.231051707472702
10
-156.44115728824011
20
94.177913899477502
10
-156.42879915599818
20
94.070729360786189
10
-156.41303144521129
20
93.85320625662375
10
-156.40792681293456
20
93.63204270549079
10
-156.41252831991466
20
93.407770560037335
10
-156.42618748462746
20
93.180743757690223
10
-156.44846756901248
20
92.951271910885751
10
-157.23142125790596
20
92.703906472610925
10
-157.38149349149822
20
92.878923203641762
10
-157.52310391350204
20
93.056901394284523
10
-157.65571773230585
20
93.23783114876133
10
-157.77859952484519
20
93.421772906344515
10
-157.89066651828918
20
93.608873986320901
10
-157.9421332406169
20
93.703695036514674
10
-157.9665923241995
20
93.751461569491795
10
-157.99012823524296
20
93.799461024011123
10
-158.86814666148442
20
93.60427691839044
10
-158.8691250657368
20
93.550825598781756
10
-158.87104514203747
20
93.497202658267724
10
-158.87749111829581
20
93.389504800549545
10
-158.89974019909965
20
93.172541364341427
10
-158.933119971465
20
92.953859963400873
10
-158.97658460005309
20
92.733784369900775
10
-159.0294652723376
20
92.512584935083737
10
-159.09124923615036
20
92.290465338128342
10
-159.90526798118546
20
92.182822942966737
10
-160.02266636881888
20
92.381233396615784
10
-160.13122770630611
20
92.581097034047758
10
-160.2304043200576
20
92.782301812265302
10
-160.31947391509112
20
92.984794911310743
10
-160.39735024016736
20
93.188517524538838
10
-160.43157400139435
20
93.290835826589259
10
-160.44737008820164
20
93.342118818740119
10
-160.46220789647052
20
93.393480565094379
10
-161.3607853538673
20
93.353726619822126
10
-161.37102512798137
20
93.301255211713666
10
-161.38223423111839
20
93.24878491107377
10
-161.4072856103941
20
93.143834319539707
10
-161.46686429817998
20
92.934029382730358
10
-161.53771256337319
20
92.724469440853085
10
-161.61873279661961
20
92.515285083652472
10
-161.70921918637498
20
92.30662406109758
10
-161.80863492495632
20
92.098615746700219
10
-162.62897479741298
20
92.133954934052326
10
-162.71014457456116
20
92.349742230049529
10
-162.78233981652818
20
92.565418996999256
10
-162.84507793639995
20
92.780791560265158
10
-162.89763493075282
20
92.99567711111726
10
-162.93894891149236
20
93.209821890515187
10
-162.95488036492117
20
93.316533274437546
10
-162.96153057469655
20
93.369770475268695
10
-162.96723197102921
20
93.422928599978292
10
-163.85906055249094
20
93.539821488959205
10
-163.87825719506583
20
93.48992105452588
10
-163.89840625254345
20
93.440198118921174
10
-163.94129430869037
20
93.34119901889018
10
-164.03641079115349
20
93.144923602417222
10
-164.14256250009538
20
92.950846429341027
10
-164.25868174531163
20
92.758916142040789
10
-164.38402388474668
20
92.569135603664336
10
-164.51805406526279
20
92.381548770046166
10
-165.31979038662544
20
92.558799311689071
10
-165.36225443627001
20
92.785409284161204
10
-165.39591101433771
20
93.010337934887204
10
-165.420286875958
20
93.233341462130497
10
-165.43473061493302
20
93.454083012874619
10
-165.43823437935859
20
93.672147334767914
10
-165.43540000106412
20
93.780001589049675
10
-165.43269632914428
20
93.833590209115158
10
-165.42907931893706
20
93.886930810723584
10
-166.28706455061518
20
94.156913221499366
10
-166.31463880770872
20
94.111107658643675
10
-166.34310588750918
20
94.065628082897973
10
-166.40253846088461
20
93.975585407521322
10
-166.53029092659665
20
93.798808161948529
10
-166.66853794925234
20
93.626113350945673
10
-166.81621391624486
20
93.457256495989782
10
-166.9726095991476
20
93.292125369505499
10
-167.13717726284531
20
93.130661780107914
10
-167.89596035887013
20
93.44444782710751
10
-167.89842483712818
20
93.674982268532219
10
-167.89250693041285
20
93.902346596307439
10
-167.87779664903547
20
94.126193091510061
10
-167.85368355643305
20
94.346082815430236
10
-167.81927324450953
20
94.561452088961033
10
-167.79774920022729
20
94.667171775797243
10
-167.78578635909497
20
94.719479660235564
10
-167.77295493534825
20
94.771374308393462
10
-168.57102525926302
20
95.186245853805502
10
-168.60613063494219
20
95.145919483510085
10
-168.64206551662025
20
95.106076869123441
10
-168.71623452463524
20
95.027723846737103
10
-168.8727302243837
20
94.875821778916546
10
-169.03886799845534
20
94.72975042290534
10
-169.21363254592154
20
94.589113087387091
10
-169.39632410345155
20
94.453639714461488
10
-169.58643028803309
20
94.323210873632718
10
-170.27919654866693
20
94.763985469466235
10
-170.24158403624511
20
94.991441715688296
10
-170.19628152897013
20
95.21432478166497
10
-170.14291811376887
20
95.432216428844811
10
-170.08099673636039
20
95.64458314337503
10
-170.00970859090421
20
95.850701645856745
10
-169.97014662303772
20
95.951078692364035
10
-169.94928296570623
20
96.000514840526307
10
-169.92763815950897
20
96.049400437663607
10
-170.64153945660104
20
96.596539541198325
10
-170.68311978906684
20
96.562927888534233
10
-170.72543291326542
20
96.529933582011324
10
-170.81207943705974
20
96.465650104496746
10
-170.992572306223
20
96.343226753255436
10
-171.18155040302781
20
96.228227916094085
10
-171.37807664130278
20
96.120062010827098
10
-171.58152562490966
20
96.018381072427275
10
-171.79139254291283
20
95.92293940613888
10
-172.39709196565116
20
96.477319569744381
10
-172.32055422677126
20
96.694800350419769
10
-172.23723044204377
20
96.90642211410038
10
-172.14685001412181
20
97.111731454709656
10
-172.04898653140489
20
97.310126231785446
10
-171.94298920295554
20
97.500731076187463
10
-171.88660167100147
20
97.592717748086798
10
-171.85747213451862
20
97.637780609144031
10
-171.82765816343607
20
97.682159328943897
10
-172.43571646444909
20
98.344958623508276
10
-172.4824911510396
20
98.319077836480801
10
-172.52988707857378
20
98.293931256284822
10
-172.62638873523861
20
98.24566041593684
10
-172.82539650058004
20
98.156441996416234
10
-173.03147108394825
20
98.076007618131342
10
-173.24379812349753
20
98.003620996653581
10
-173.46180436626099
20
97.938804239709498
10
-173.6850574754767
20
97.881265311481627
10
-174.18528461750685
20
98.532393007315079
10
-174.07215411972095
20
98.733280944251959
10
-173.95334557342761
20
98.927213669938709
10
-173.82868124798179
20
99.113721171808749
10
-173.69786111909514
20
99.292101178251755
10
-173.56037189515277
20
99.461404199038782
10
-173.488866689026
20
99.542194732294718
10
-173.45235489139492
20
99.58151488331319
10
-173.41529805150597
20
99.620045205920746
10
-173.89901324400822
20
100.37836530907552
10
-173.94957938841782
20
100.36099927664624
10
-174.00061810091162
20
100.34446941368975
10
-174.10403178309122
20
100.31369155468292
10
-174.31551253869767
20
100.260382317622
10
-174.53242287938448
20
100.21695642530412
10
-174.75408972866677
20
100.18254034008203
10
-174.9800402108302
20
100.15656715054487
10
-175.20989779527011
20
100.13865946472367
10
-175.58946307189325
20
100.86676491270966
10
-175.44315987327732
20
101.04495453280792
10
-175.29248877880977
20
101.21531395595974
10
-175.13733152698939
20
101.37733238454196
10
-174.9775125262945
20
101.53029283347338
10
-174.81272100958205
20
101.67314391140978
10
-174.72827169199147
20
101.74030260798324
10
-174.68548575360441
20
101.77267615148284
10
-174.64230155279981
20
101.80418946999522
10
-174.98699103072684
20
102.63498365606819
10
-175.03979932596582
20
102.6266635541007
10
-175.09293713396104
20
102.6192407376648
10
-175.2001179481401
20
102.60689188594036
10
-175.4176410523026
20
102.59112417515351
10
-175.63880460343546
20
102.58601954287684
10
-175.86308047340123
20
102.59061176933925
10
-176.0901072757483
20
102.60427093405214
10
-176.31957912255277
20
102.62655101843717
10
-176.56694456082761
20
103.40950470733064
10
-176.39192782979677
20
103.5595769409229
10
-176.21394963915404
20
103.70118736292665
10
-176.03301988467723
20
103.83380118173042
10
-175.849078127094
20
103.95668297426987
10
-175.66197332260541
20
104.06875924823137
10
-175.56715227241159
20
104.12022597055918
10
-175.51938946394671
20
104.14467577362416
10
-175.47139000942741
20
104.16821168466754
10
-175.66657039053584
20
105.04623939142661
10
-175.72002171014458
20
105.04721779567899
10
-175.77364465065858
20
105.04913787197965
10
-175.88134250837669
20
105.05558384823809
10
-176.09830594458487
20
105.07783292904182
10
-176.3169910700376
20
105.11120342088967
10
-176.53706293902553
20
105.15467732999527
10
-176.7582660983548
20
105.20754872176228
10
-176.98038197079796
20
105.26934196609254
10
-177.08802809047174
20
106.08335143061012
10
-176.88961391231047
20
106.20075909876115
10
-176.68975399939075
20
106.30931115573077
10
-176.48854549666098
20
106.40849704999988
10
-176.28605239761555
20
106.4975666450333
10
-176.08232978438741
20
106.57544297010952
10
-175.98001520684926
20
106.60965745081901
10
-175.92873221469844
20
106.62545353762621
10
-175.87737046834417
20
106.64029134589511
10
-175.91712441361639
20
107.53886880329188
10
-175.96959209721263
20
107.54911785792356
10
-176.02206612236472
20
107.56031768054306
10
-176.12701671389883
20
107.58536905981867
10
-176.33681792619592
20
107.64495702812215
10
-176.54638159258548
20
107.71579601279777
10
-176.75556222527376
20
107.7968255265619
10
-176.9642269723409
20
107.88730263579961
10
-177.1695889557696
20
107.99207574159659
10
-177.11299768588344
20
108.81123340796933
0
CIRCLE
5
101
100
AcDbEntity
8
0
100
AcDbCircle
10
-161.54638379200694
20
107.72446724143163
30
0
40
3.2750000000000004
0
CIRCLE
5
102
100
AcDbEntity
8
0
100
AcDbCircle
10
-134.30812468783674
20
120.2293451660846
30
0
40
1.5000000000000002
0
CIRCLE
5
103
100
AcDbEntity
8
0
100
AcDbCircle
10
-146.46050562828333
20
149.79541258694795
30
0
40
1.5000000000000002
0
ENDSEC
0
SECTION
2
OBJECTS
0
DICTIONARY
5
C
100
AcDbDictionary
3
ACAD_GROUP
350
D
3
ACAD_MLINESTYLE
350
17
0
DICTIONARY
5
D
100
AcDbDictionary
0
DICTIONARY
5
1A
330
C
100
AcDbDictionary
0
DICTIONARY
5
17
100
AcDbDictionary
0
ENDSEC
0
EOF
