0
SECTION
2
HEADER
9
$INSUNITS
70
4
9
$ACADVER
1
AC1014
9
$HANDSEED
5
FFFF
0
ENDSEC
0
SECTION
2
TABLES
0
TABLE
2
VPORT
5
8
100
AcDbSymbolTable
0
ENDTAB
0
TABLE
2
LTYPE
5
5
100
AcDbSymbolTable
0
LTYPE
5
14
100
AcDbSymbolTableRecord
100
AcDbLinetypeTableRecord
2
BYBLOCK
70
0
0
LTYPE
5
15
100
AcDbSymbolTableRecord
100
AcDbLinetypeTableRecord
2
BYLAYER
70
0
0
ENDTAB
0
TABLE
2
LAYER
5
2
100
AcDbSymbolTable
70
2
0
LAYER
5
50
100
AcDbSymbolTableRecord
100
AcDbLayerTableRecord
2
0
70
0
6
CONTINUOUS
0
ENDTAB
0
TABLE
2
STYLE
5
3
100
AcDbSymbolTable
70
1
0
STYLE
5
11
100
AcDbSymbolTableRecord
100
AcDbTextStyleTableRecord
2
STANDARD
70
0
0
ENDTAB
0
TABLE
2
VIEW
5
6
100
AcDbSymbolTable
70
0
0
ENDTAB
0
TABLE
2
UCS
5
7
100
AcDbSymbolTable
70
0
0
ENDTAB
0
TABLE
2
APPID
5
9
100
AcDbSymbolTable
70
2
0
APPID
5
12
100
AcDbSymbolTableRecord
100
AcDbRegAppTableRecord
2
ACAD
70
0
0
ENDTAB
0
TABLE
2
DIMSTYLE
5
A
100
AcDbSymbolTable
70
1
0
ENDTAB
0
TABLE
2
BLOCK_RECORD
5
1
100
AcDbSymbolTable
70
1
0
BLOCK_RECORD
5
1F
100
AcDbSymbolTableRecord
100
AcDbBlockTableRecord
2
*MODEL_SPACE
0
BLOCK_RECORD
5
1B
100
AcDbSymbolTableRecord
100
AcDbBlockTableRecord
2
*PAPER_SPACE
0
ENDTAB
0
ENDSEC
0
SECTION
2
BLOCKS
0
BLOCK
5
20
100
AcDbEntity
100
AcDbBlockBegin
2
*MODEL_SPACE
0
ENDBLK
5
21
100
AcDbEntity
100
AcDbBlockEnd
0
BLOCK
5
1C
100
AcDbEntity
100
AcDbBlockBegin
2
*PAPER_SPACE
0
ENDBLK
5
1D
100
AcDbEntity
100
AcDbBlockEnd
0
ENDSEC
0
SECTION
2
ENTITIES
0
LWPOLYLINE
5
100
100
AcDbEntity
8
0
100
AcDbPolyline
90
427
70
1
43
0.0
10
-175.84537773631712
20
107.21736882094717
10
-175.63937757247189
20
107.12095563709681
10
-175.43429995156919
20
107.01563352423642
10
-175.49307220579462
20
106.19662943194841
10
-175.71109128301359
20
106.12167189716291
10
-175.92873951932518
20
106.05566938770477
10
-176.14581904364292
20
105.99911144115015
10
-176.36211285358431
20
105.95272090601537
10
-176.57735505221808
20
105.91753465203398
10
-176.68448305208031
20
105.90465869086331
10
-176.73789405396474
20
105.89953772076856
10
-176.79118994751798
20
105.89536054625029
10
-176.93351832006979
20
105.00723640532884
10
-176.88419210552667
20
104.98661810725554
10
-176.83505379572949
20
104.96505683949832
10
-176.73732703498573
20
104.91935799744496
10
-176.54385528090219
20
104.81867876714496
10
-176.35288595079027
20
104.70702051699909
10
-176.16435051346653
20
104.58545944564125
10
-175.9782266943418
20
104.45474808470135
10
-175.79455257122373
20
104.31540474883857
10
-175.99464886988568
20
103.51906274095964
10
-176.22237719748753
20
103.48309502265202
10
-176.44817776786564
20
103.45588608586228
10
-176.67177900748788
20
103.43788342117377
10
-176.89284635247077
20
103.4297590903536
10
-177.11093055579991
20
103.43248606675346
10
-177.21865851970446
20
103.43840767324856
10
-177.27214888935754
20
103.44263696531539
10
-177.32536099820015
20
103.44778210176825
10
-177.61974286650508
20
102.59786011544591
10
-177.57475228733637
20
102.56898565194172
10
-177.53010138768298
20
102.53923038321246
10
-177.44179331368605
20
102.47725022834439
10
-177.26874412115683
20
102.34449753380694
10
-177.10007380645723
20
102.20137230190085
10
-176.93550946482404
20
102.04892368610082
10
-176.77490689028934
20
101.88787536081554
10
-176.61821471062729
20
101.71875973650685
10
-176.95355824787231
20
100.96925931764176
10
-177.18407222808077
20
100.97338699023561
10
-177.41117062690168
20
100.9857991245123
10
-177.63449852257068
20
101.00690380201644
10
-177.85362481319993
20
101.03728544654339
10
-178.06791426373735
20
101.07784348927602
10
-178.17297765059016
20
101.10237726749122
10
-178.22491684938831
20
101.11583254843252
10
-178.27642601260675
20
101.13014150930105
10
-178.71392915306154
20
100.3442529357023
10
-178.67463514669754
20
100.30800454786971
10
-178.63583523257248
20
100.27094716505745
10
-178.55962657922083
20
100.19456510312624
10
-178.41226602448447
20
100.03379339152974
10
-178.27100225924991
20
99.863547796870549
10
-178.13540623410663
20
99.684837237692079
10
-178.00522145749477
20
99.498353893227261
10
-177.88027198785539
20
99.304591670930265
10
-178.34066981379377
20
98.624708437336238
10
-178.56696780101686
20
98.668803986220084
10
-178.78846131823195
20
98.720464908163592
10
-179.0047331189387
20
98.780023024449534
10
-179.21524855541307
20
98.847987404642822
10
-179.41923900337568
20
98.925148818457842
10
-179.51845094371404
20
98.967559402335482
10
-179.56726260349083
20
98.989821669219751
10
-179.61550910653733
20
99.012860529877116
10
-180.18283041637397
20
98.314880351128409
10
-180.15042655816472
20
98.272362293438192
10
-180.11865455129933
20
98.229121972709009
10
-180.05686502892544
20
98.140678995852141
10
-179.93965461874956
20
97.956753681693527
10
-179.83010828142443
20
97.764574247966465
10
-179.72760743551657
20
97.565025204158275
10
-179.63177365808747
20
97.358769872280618
10
-179.54237659670568
20
97.14625483688576
10
-180.11383398369074
20
96.556652469513509
10
-180.32903538219219
20
96.639363044626876
10
-180.53819149257194
20
96.728703166717324
10
-180.74083939721305
20
96.824913475110492
10
-180.93635491821908
20
96.928403117658803
10
-181.12384478183947
20
97.039810343553256
10
-181.21418816581962
20
97.098807946907783
10
-181.2583948539519
20
97.129213428015333
10
-181.30190035817236
20
97.160277195641129
10
-181.98181616878034
20
96.571420400650879
10
-181.95727689907758
20
96.523921263826523
10
-181.93349586211357
20
96.475820809172433
10
-181.88800600502219
20
96.377985360932399
10
-181.80451842243963
20
96.176502195887679
10
-181.73000274598874
20
95.96821113815318
10
-181.66371228091774
20
95.753907327321116
10
-181.60515450663411
20
95.53414014802614
10
-181.55400871464195
20
95.309329059522682
10
-182.21917336879153
20
94.827909111638121
10
-182.41673883399665
20
94.946741447350448
10
-182.60721449240648
20
95.071037576725843
10
-182.79007073179048
20
95.200983808355971
10
-182.964646442891
20
95.336854249081028
10
-183.12994299405909
20
95.479129351660021
10
-183.20866346547533
20
95.552906539262281
10
-183.24692263007501
20
95.590526496481104
10
-183.28438316672774
20
95.628675881145853
10
-184.05621010879418
20
95.166832331530912
10
-184.04030211066114
20
95.1157908292803
10
-184.02523313568321
20
95.064291789967612
10
-183.99741851356896
20
94.960046655658346
10
-183.95018749489364
20
94.747123971294201
10
-183.91297676556286
20
94.529066084503356
10
-183.88490005965787
20
94.306498960736008
10
-183.86540253185061
20
94.079895724365088
10
-183.85406784167176
20
93.849629417774054
10
-184.59272596744563
20
93.49103279721092
10
-184.76665650361292
20
93.642360965907613
10
-184.93264381798099
20
93.797851973664464
10
-185.09016522601283
20
93.957565827816694
10
-185.23849465576089
20
94.121690729156256
10
-185.37657807853407
20
94.290504568924092
10
-185.44129285656422
20
94.376830902305102
10
-185.47243194577777
20
94.420524229941648
10
-185.50269161662808
20
94.464603204256406
10
-186.34299752997421
20
94.143790727385039
10
-186.33618937312127
20
94.090768571102444
10
-186.33029138405337
20
94.037435296479828
10
-186.32100760016647
20
93.929946932052601
10
-186.31147080602813
20
93.71205465362236
10
-186.31268090964326
20
93.490850066151296
10
-186.32368487034108
20
93.266790786840033
10
-186.34382602888058
20
93.040243010516662
10
-186.37265729537089
20
92.811505251226407
10
-187.16236560719165
20
92.586617992378208
10
-187.30737371389353
20
92.76585431052635
10
-187.44384380796774
20
92.947798846162101
10
-187.57122509341019
20
93.132446724068942
10
-187.68880015789048
20
93.31982826846837
10
-187.79548241123388
20
93.510064400061708
10
-187.84421977961603
20
93.606317106795998
10
-187.86729502237506
20
93.654755724949467
10
-187.88944600154628
20
93.703416011409388
10
-188.77269167267366
20
93.533397551954153
10
-188.77520286828366
20
93.479993464533706
10
-188.77864978532997
20
93.426447513053787
10
-188.78817715957311
20
93.318977501094466
10
-188.81661377004292
20
93.102746869760978
10
-188.8562248672913
20
92.885108599358389
10
-188.9059616985358
20
92.666359872700795
10
-188.96513858703707
20
92.446760780964041
10
-189.0332574958785
20
92.226499364663169
10
-189.85001133522138
20
92.142166237902003
10
-189.96169297971755
20
92.343859375700973
10
-190.06449261120872
20
92.546737522601063
10
-190.15788392103411
20
92.750695801534704
10
-190.24112748719747
20
92.95564614933005
10
-190.31315675685113
20
93.161517396849419
10
-190.34443331031514
20
93.264774284435276
10
-190.35875955972665
20
93.316476446235328
10
-190.3721193382803
20
93.368245943756591
10
-191.27146602835001
20
93.354184312224305
10
-191.28321352423657
20
93.302027926258688
10
-191.29591264942434
20
93.249901568468502
10
-191.32395176833626
20
93.145714530209602
10
-191.38950161422321
20
92.937704792105563
10
-191.46630538156592
20
92.730245830161209
10
-191.5532791181445
20
92.523468210864337
10
-191.64968265620817
20
92.317470684973486
10
-191.75501441485517
20
92.112390426116434
10
-192.57400886135667
20
92.171165318296204
10
-192.64896639614216
20
92.389184395515173
10
-192.71497855138691
20
92.606829993872367
10
-192.77152685215484
20
92.823912156144587
10
-192.81792703307619
20
93.04020332813154
10
-192.85310364127099
20
93.255448164719724
10
-192.86597960244177
20
93.362576164581895
10
-192.871110218323
20
93.415984528511956
10
-192.8752777470547
20
93.469283060019578
10
-193.76340188797613
20
93.611611432571422
10
-193.78402018604945
20
93.562285218028308
10
-193.80558145380675
20
93.513146908231136
10
-193.8512899416466
20
93.415417509532986
10
-193.95196917194664
20
93.221945755449468
10
-194.06362742209257
20
93.030976425337499
10
-194.18517884766379
20
92.842443625968144
10
-194.31589985439032
20
92.656317168889018
10
-194.45523354446649
20
92.472645683725318
10
-195.25158519813198
20
92.672739344432955
10
-195.28754327065303
20
92.900470309989132
10
-195.3147618532293
20
93.126268242412891
10
-195.33275487213132
20
93.349872119989499
10
-195.34088884873799
20
93.570936827018031
10
-195.33816187233822
20
93.789021030347115
10
-195.33224026584304
20
93.896748994251709
10
-195.3280109737762
20
93.950239363904814
10
-195.32286583732332
20
94.003451472747415
10
-196.17277817785907
20
94.29783597900672
10
-196.20165264136335
20
94.252845399837994
10
-196.23141755587923
20
94.208191862230194
10
-196.29339771074717
20
94.119883788233352
10
-196.42614075949811
20
93.946837233658457
10
-196.56926599140411
20
93.778166918958888
10
-196.72171460720418
20
93.613602577325679
10
-196.88276293248953
20
93.453000002790986
10
-197.05187855679821
20
93.296307823128927
10
-197.80137897566334
20
93.631651360373951
10
-197.79725130306946
20
93.862165340582408
10
-197.78483916879267
20
94.08926373940335
10
-197.76374413707521
20
94.312588997117928
10
-197.73336249254822
20
94.531715287747232
10
-197.69280444981558
20
94.746004738284597
10
-197.66826102581388
20
94.851070763091798
10
-197.65480574487256
20
94.903009961889978
10
-197.64049678400403
20
94.954519125108376
10
-198.42638535760273
20
95.392022265563199
10
-198.46263374543528
20
95.352728259199111
10
-198.49970077403415
20
95.313925707119708
10
-198.57607319017876
20
95.23771969172239
10
-198.73685454756188
20
95.090356499031714
10
-198.90709049643453
20
94.949095371751554
10
-199.08580105561299
20
94.813499346608282
10
-199.27229404586441
20
94.683311932042002
10
-199.46604662237473
20
94.558365100357065
10
-200.14592985596869
20
95.018762926295537
10
-200.10184395287143
20
95.245058275564247
10
-200.05018303092794
20
95.466551792779342
10
-199.99061526885549
20
95.682826231440487
10
-199.92265088866213
20
95.893341667914868
10
-199.84548947484717
20
96.09733211587745
10
-199.80308853675609
20
96.19654141826139
10
-199.78081662408528
20
96.245355715992602
10
-199.75777776342784
20
96.293602219039158
10
-200.45575794217658
20
96.860923528875759
10
-200.49827599986679
20
96.828519670666523
10
-200.541516320596
20
96.796747663801114
10
-200.62995929745287
20
96.7349581414272
10
-200.81388461161143
20
96.617747731251342
10
-201.00607369112512
20
96.508198755971804
10
-201.20561308914665
20
96.405700548018359
10
-201.41187806681097
20
96.309864132634843
10
-201.62438345641925
20
96.220469709207435
10
-202.21399546957812
20
96.7919244582381
10
-202.13127524867815
20
97.007128494693845
10
-202.04193512658776
20
97.216284605073724
10
-201.94572481819455
20
97.418932509714693
10
-201.84223517564618
20
97.614448030720865
10
-201.73082794975176
20
97.801937894341236
10
-201.67183999218383
20
97.892278640366968
10
-201.64142486528965
20
97.936487966453569
10
-201.61036109766397
20
97.979993470674117
10
-202.19922753844082
20
98.659906643327687
10
-202.24672667526511
20
98.635367373624931
10
-202.29481748413264
20
98.611588974615245
10
-202.39265293237264
20
98.566099117523947
10
-202.59413609741742
20
98.482611534941341
10
-202.80242715515186
20
98.408095858490498
10
-203.01673096598392
20
98.341805393419506
10
-203.23650779106546
20
98.283244981181483
10
-203.46130923378234
20
98.232101827143623
10
-203.94272918166692
20
98.897266481293173
10
-203.82389684595461
20
99.094831946498289
10
-203.69960071657925
20
99.28530760490824
10
-203.56965448494913
20
99.468163844292121
10
-203.43379369001065
20
99.642736917438341
10
-203.29151858743157
20
99.808033468606325
10
-203.21773175404277
20
99.886756577976996
10
-203.18011179682401
20
99.925015742576747
10
-203.14259091462441
20
99.963105777435942
10
-203.61722085751498
20
100.72713951218358
10
-203.66799063777708
20
100.71038454967277
10
-203.71922224985383
20
100.69446368031794
10
-203.82299021091242
20
100.66491860478507
10
-204.0350976547258
20
100.61415177584249
10
-204.25251589612719
20
100.57331561815062
10
-204.47457550999903
20
100.54154279669009
10
-204.70082300830509
20
100.518278019996
10
-204.93086887316349
20
100.50311400950764
10
-205.27961515277076
20
101.27081643830573
10
-205.1282773382259
20
101.44474961237385
10
-204.97279597619766
20
101.61073428873321
10
-204.81307247620379
20
101.76825833466366
10
-204.64895722059902
20
101.91658512640007
10
-204.48014338078303
20
102.05466854911418
10
-204.3938074015928
20
102.1193859650686
10
-204.35011407394538
20
102.15052505426691
10
-204.30604474540658
20
102.18078208714746
10
-204.62684757619792
20
103.02109063856005
10
-204.67986973248287
20
103.01428248172557
10
-204.73320300710753
20
103.00838449267624
10
-204.84069137153801
20
102.99910070882687
10
-205.05858364997167
20
102.98956391476464
10
-205.27979788322878
20
102.99077138050268
10
-205.50384751674972
20
103.00177797923314
10
-205.73039529306607
20
103.02191913785182
10
-205.95913305234609
20
103.05075040442264
10
-206.18402030092696
20
103.84045871969323
10
-206.00478398277886
20
103.98546682639514
10
-205.82283944714311
20
104.12193692046935
10
-205.6381915692362
20
104.24931820591181
10
-205.45081002483676
20
104.36689327039211
10
-205.26058353903011
20
104.47357288578107
10
-205.1643211865092
20
104.52231289211775
10
-205.11588256835577
20
104.54538813487667
10
-205.06723192768243
20
104.56753647609349
10
-218.0914084617369
20
117.39710187545637
10
-222.08869314405632
20
130.962562415424
10
-221.95334794432924
20
131.21099359892065
10
-209.75078445652727
20
153.60925592020317
10
-200.15870172933592
20
156.43571986644307
10
-198.24025590308241
20
157.00102128494703
42
-0.99999999999999989
10
-195.41389348434618
20
147.40928312859236
10
-197.33233930876293
20
146.84398171062963
10
-202.951483440147
20
145.18820904952784
10
-211.2535758790834
20
129.9494073834752
10
-211.32612389529189
20
129.81624278220406
10
-209.58652627458554
20
123.9126244954146
10
-202.75800084160477
20
120.19244684167064
10
-189.77991215744021
20
118.2843385077685
10
-183.63034890297709
20
120.09640783146479
10
-183.59329170748674
20
120.13520792449816
10
-183.5169100134832
20
120.21141694661296
10
-183.35614165132966
20
120.35878792330905
10
-183.18589410067699
20
120.50004286469465
10
-183.00718419614293
20
120.63563975263079
10
-182.8207014801977
20
120.76582542956167
10
-182.62693986114496
20
120.89077583466181
10
-181.94705440481005
20
120.43038129112851
10
-181.99115149915315
20
120.20409273679343
10
-182.04281135175034
20
119.98259897016791
10
-182.10236578589874
20
119.76631723614993
10
-182.17033178774739
20
119.55581111732752
10
-182.24748957871768
20
119.35181065106681
10
-182.28990232161169
20
119.25260815175001
10
-182.31216171483754
20
119.20378673872014
10
-182.335200342566
20
119.15554012444524
10
-181.63721742486203
20
118.58822218438479
10
-181.59470216161549
20
118.62063589363991
10
-181.55146199427844
20
118.6524081092643
10
-181.46301667773454
20
118.71418841285644
10
-181.27909192945674
20
118.83139971100164
10
-181.08691566261015
20
118.94095662191987
10
-180.88736711366687
20
119.04345843122685
10
-180.68110960646533
20
119.13928355865842
10
-180.46859764067278
20
119.22869129181173
10
-179.87855935701191
20
118.65680430961433
10
-179.96127257007967
20
118.44161255689949
10
-180.0506100542157
20
118.23244680073302
10
-180.14682036260891
20
118.02979889609203
10
-180.25031264311156
20
117.83429302087249
10
-180.36171723105161
20
117.64679351146552
10
-180.42071747236059
20
117.55645977327205
10
-180.45112031551372
20
117.51224343935317
10
-180.48218408313954
20
117.46873793513271
10
-179.89332992610366
20
116.78883177031123
10
-179.84582815132489
20
116.8133613942274
10
-179.79772769667082
20
116.83714243119148
10
-179.69989224843076
20
116.88263228828278
10
-179.49840908338604
20
116.96611987086538
10
-179.29011802565157
20
117.04063554731624
10
-179.0758168527739
20
117.10693565817382
10
-178.85604703552451
20
117.16548378667085
10
-178.63123594702108
20
117.21662957866312
10
-178.14981599913654
20
116.55146492451357
10
-178.26864833484882
20
116.35389945930847
10
-178.39294710217865
20
116.16343344668508
10
-178.52289069585436
20
115.98056756151459
10
-178.65876377453378
20
115.80600149620059
10
-178.80103623915844
20
115.640695299246
10
-178.87481342676068
20
115.56197482782974
10
-178.91243338397948
20
115.52371566322996
10
-178.95058540659861
20
115.48626477236384
10
-178.48873921902933
20
114.71442818451088
10
-178.4376977167787
20
114.73033618264392
10
-178.38620131542035
20
114.74541480340835
10
-178.28195354315676
20
114.77321977973611
10
-178.06903085879259
20
114.82045079841134
10
-177.85097560995612
20
114.85767117352876
10
-177.62840584823439
20
114.88573823364712
10
-177.40180524981787
20
114.90524540724097
10
-177.17153630527247
20
114.91657045163329
10
-176.81293968470931
20
114.17791232585944
10
-176.964267853406
20
114.00398178969206
10
-177.11975886116289
20
113.83799447532408
10
-177.27947535326948
20
113.68048271307873
10
-177.44360025460904
20
113.5321532833307
10
-177.61241145642248
20
113.394060214771
10
-177.69874042775791
20
113.32935508252734
10
-177.74243111744002
20
113.2982063475272
10
-177.78651009175485
20
113.267946676677
10
-177.46569761488342
20
112.42764076333076
10
-177.41267545860083
20
112.43444892018371
10
-177.35934218397824
20
112.4403469092517
10
-177.251853819551
20
112.44963069313857
10
-177.03396417907513
20
112.45917713306346
10
-176.81275695364971
20
112.45795738366182
10
-176.58869767433842
20
112.44695342296393
10
-176.36214989801505
20
112.42681226442446
10
-176.13341213872479
20
112.3979809979342
10
-175.90852751783098
20
111.60828233189994
10
-176.08776383597913
20
111.46327422519816
10
-176.26970837161485
20
111.32680413112382
10
-176.45435361156731
20
111.19941319989479
10
-176.64173515596676
20
111.0818381354146
10
-176.83197392551446
20
110.97516552785771
10
-176.92822663224877
20
110.92642815947555
10
-176.97666261244788
20
110.90334327092989
10
-177.0253228989078
20
110.88119229175875
10
-176.85530443945254
20
109.99794662063132
10
-176.80190298998644
20
109.99544507080793
10
-176.74835440055219
20
109.99198850797509
10
-176.64088702654723
20
109.98247077951847
10
-176.42465639521376
20
109.95403416904864
10
-176.20701548685676
20
109.91441342601368
10
-175.98826676019917
20
109.86467659476928
10
-175.76866766846246
20
109.80549970626802
10
-175.54840889011598
20
109.73739044321319
10
-175.46407312540038
20
108.92062695808357
10
-175.6657662631994
20
108.80894531358751
10
-175.86864441009942
20
108.70614568209625
10
-176.07260268903309
20
108.61275437227086
10
-176.27755303682846
20
108.5295108061076
10
-176.48342428434785
20
108.45748153645394
10
-176.58668117193369
20
108.42620498298992
10
-176.63838597168808
20
108.41188837936492
10
-176.69015283125498
20
108.39851895502466
10
-176.67609119972269
20
107.49917226495505
10
-176.62393745171147
20
107.487434414855
10
-176.5718110939213
20
107.47473528966734
10
-176.46762405566236
20
107.44669617075532
10
-176.25961167960398
20
107.38113667908188
10
-176.0521527176596
20
107.30433291173904
0
CIRCLE
5
101
100
AcDbEntity
8
0
100
AcDbCircle
10
-191.04638398092612
20
107.72447244222066
30
0
40
3.2750000000000004
0
CIRCLE
5
102
100
AcDbEntity
8
0
100
AcDbCircle
10
-196.82707469371428
20
152.2051522067697
30
0
40
1.5000000000000002
0
CIRCLE
5
103
100
AcDbEntity
8
0
100
AcDbCircle
10
-215.27318793990173
20
125.52213288840207
30
0
40
1.5000000000000002
0
ENDSEC
0
SECTION
2
OBJECTS
0
DICTIONARY
5
C
100
AcDbDictionary
3
ACAD_GROUP
350
D
3
ACAD_MLINESTYLE
350
17
0
DICTIONARY
5
D
100
AcDbDictionary
0
DICTIONARY
5
1A
330
C
100
AcDbDictionary
0
DICTIONARY
5
17
100
AcDbDictionary
0
ENDSEC
0
EOF
